# xmcd
#
# Track frame offsets: 
#        150
#        24322
#        46679
#        72189
#
# Disc length: 1214 seconds
#
# Revision: 0
# Processed by: cddbd v1.5.2PL0 Copyright (c) Steve Scherf et al.
# Submitted via: ExactAudioCopy v0.99pb4
#
DISCID=2604bc04
DTITLE=Kenny Chesney - Lucky Old Sun (Bonus Disc)
DYEAR=2008
DGENRE=Country
TTITLE0=Boston (Live)
TTITLE1=Got A Little Crazy (Live)
TTITLE2=Soul Of A Sailor (Live)
TTITLE3=Guitars and Tiki Bars (Live)
EXTD=
EXTT0=
EXTT1=
EXTT2=
EXTT3=
PLAYORDER=
